<svg width="24" height="24" viewBox="0 0 24 24" fill="currentColor" xmlns="http://www.w3.org/2000/svg">
<path d="M18.4923 2.3304L21.671 5.50917C22.5497 6.38785 22.5497 7.81247 21.671 8.69115L19.0866 11.2751C20.1696 11.4375 21 12.3718 21 13.5001V18.7501C21 19.9927 19.9926 21.0001 18.75 21.0001H5.25C4.00736 21.0001 3 19.9927 3 18.7501V5.25007C3 4.00743 4.00736 3.00007 5.25 3.00007H10.5C11.6289 3.00007 12.5637 3.83152 12.7253 4.91547L15.3103 2.3304C16.189 1.45172 17.6136 1.45172 18.4923 2.3304ZM4.5 18.7501C4.5 19.1643 4.83579 19.5001 5.25 19.5001L11.249 19.4994L11.25 12.7501L4.5 12.7494V18.7501ZM12.749 19.4994L18.75 19.5001C19.1642 19.5001 19.5 19.1643 19.5 18.7501V13.5001C19.5 13.0859 19.1642 12.7501 18.75 12.7501L12.749 12.7494V19.4994ZM10.5 4.50007H5.25C4.83579 4.50007 4.5 4.83585 4.5 5.25007V11.2494H11.25V5.25007C11.25 4.83585 10.9142 4.50007 10.5 4.50007ZM12.75 9.30939V11.2501L14.69 11.2494L12.75 9.30939Z" fill="currentColor" style="fill:currentColor;fill:currentColor;fill-opacity:1;"/>
</svg>
