<svg width="20" height="20" viewBox="0 0 20 20" fill="currentColor" xmlns="http://www.w3.org/2000/svg">
    <path
        d="M15.2446 16.4976C15.6589 16.4976 15.9946 16.8334 15.9946 17.2476C15.9946 17.6273 15.7125 17.9411 15.3464 17.9907L15.2446 17.9976H4.75C4.33579 17.9976 4 17.6618 4 17.2476C4 16.8679 4.28215 16.5541 4.64823 16.5044L4.75 16.4976H15.2446ZM10.0036 1.99939C10.3833 1.99939 10.6971 2.28154 10.7468 2.64762L10.7536 2.74939L10.753 12.9424L13.7192 9.97181C13.9852 9.7053 14.4019 9.68071 14.6957 9.89829L14.7799 9.97083C15.0464 10.2369 15.071 10.6535 14.8534 10.9473L14.7809 11.0315L10.538 15.2821L10.4674 15.3446L10.3764 15.4032L10.34 15.4244L10.2488 15.4623L10.1283 15.4924L10.0591 15.5003L9.999 15.5023C9.94888 15.5023 9.89801 15.4968 9.84828 15.4862L9.76741 15.4631C9.6714 15.4321 9.58429 15.3818 9.51014 15.3171L5.22056 11.0324C4.92746 10.7397 4.92712 10.2648 5.21981 9.9717C5.48588 9.70524 5.90253 9.68074 6.1963 9.89838L6.28047 9.97094L9.253 12.9384L9.25362 2.74939C9.25362 2.33518 9.58941 1.99939 10.0036 1.99939Z"
        fill="currentColor" />
</svg>