<svg width="24" height="24" viewBox="0 0 24 24" fill="currentColor" xmlns="http://www.w3.org/2000/svg">
<path d="M6.64119 14.5L9.51402 17.2038C9.81565 17.4877 9.83004 17.9624 9.54615 18.264C9.26226 18.5657 8.78761 18.58 8.48598 18.2961L4.23598 14.2961C4.08539 14.1544 4 13.9568 4 13.75C4 13.5432 4.08539 13.3456 4.23598 13.2038L8.48598 9.20385C8.78761 8.91996 9.26226 8.93435 9.54615 9.23598C9.83004 9.53761 9.81565 10.0123 9.51402 10.2961L6.64118 13L16.75 13C17.7165 13 18.5 12.2165 18.5 11.25V6.75C18.5 6.33579 18.8358 6 19.25 6C19.6642 6 20 6.33579 20 6.75V11.25C20 13.0449 18.5449 14.5 16.75 14.5L6.64119 14.5Z" fill="currentColor" style="fill:currentColor;fill:currentColor;fill-opacity:1;"/>
</svg>
