<svg width="32" height="32" viewBox="0 0 32 32" fill="none" xmlns="http://www.w3.org/2000/svg">
<path d="M3.3335 5.66675C3.3335 5.11446 3.78121 4.66675 4.3335 4.66675H5.07785C6.34514 4.66675 7.10393 5.51874 7.53782 6.31074C7.82705 6.83867 8.03627 7.45098 8.19993 8.00535C8.24425 8.00186 8.28915 8.00008 8.33457 8.00008H24.9976C26.1046 8.00008 26.9039 9.0593 26.6004 10.1238L24.1634 18.6693C23.7143 20.2443 22.2751 21.3304 20.6373 21.3304H12.7065C11.0552 21.3304 9.60763 20.2266 9.1706 18.6342L8.15661 14.9395L6.47848 9.27446L6.47576 9.26453C6.26816 8.50743 6.07332 7.80014 5.7838 7.27168C5.50265 6.75848 5.27852 6.66675 5.07785 6.66675H4.3335C3.78121 6.66675 3.3335 6.21903 3.3335 5.66675ZM12.0002 28.0001C13.4729 28.0001 14.6668 26.8062 14.6668 25.3334C14.6668 23.8607 13.4729 22.6667 12.0002 22.6667C10.5274 22.6667 9.3335 23.8607 9.3335 25.3334C9.3335 26.8062 10.5274 28.0001 12.0002 28.0001ZM21.3335 28.0001C22.8063 28.0001 24.0002 26.8062 24.0002 25.3334C24.0002 23.8607 22.8063 22.6667 21.3335 22.6667C19.8607 22.6667 18.6668 23.8607 18.6668 25.3334C18.6668 26.8062 19.8607 28.0001 21.3335 28.0001Z" fill="url(#paint0_linear_8436_1517)" style=""/>
<defs>
<linearGradient id="paint0_linear_8436_1517" x1="14.9994" y1="4.66675" x2="14.9994" y2="28.0001" gradientUnits="userSpaceOnUse">
<stop stop-color="#14A4FC" style="stop-color:#14A4FC;stop-color:color(display-p3 0.0784 0.6431 0.9882);stop-opacity:1;"/>
<stop offset="1" stop-color="#2273EC" style="stop-color:#2273EC;stop-color:color(display-p3 0.1333 0.4510 0.9255);stop-opacity:1;"/>
</linearGradient>
</defs>
</svg>
