<svg width="17" height="16" viewBox="0 0 17 16" fill="currentColor" xmlns="http://www.w3.org/2000/svg">
<g clip-path="url(#clip0_8263_6935)">
<path d="M10.3337 0.666626H3.00033C2.26699 0.666626 1.66699 1.26663 1.66699 1.99996V10.6666C1.66699 11.0333 1.96699 11.3333 2.33366 11.3333C2.70033 11.3333 3.00033 11.0333 3.00033 10.6666V2.66663C3.00033 2.29996 3.30033 1.99996 3.66699 1.99996H10.3337C10.7003 1.99996 11.0003 1.69996 11.0003 1.33329C11.0003 0.966626 10.7003 0.666626 10.3337 0.666626ZM13.0003 3.33329H5.66699C4.93366 3.33329 4.33366 3.93329 4.33366 4.66663V14C4.33366 14.7333 4.93366 15.3333 5.66699 15.3333H13.0003C13.7337 15.3333 14.3337 14.7333 14.3337 14V4.66663C14.3337 3.93329 13.7337 3.33329 13.0003 3.33329ZM12.3337 14H6.33366C5.96699 14 5.66699 13.7 5.66699 13.3333V5.33329C5.66699 4.96663 5.96699 4.66663 6.33366 4.66663H12.3337C12.7003 4.66663 13.0003 4.96663 13.0003 5.33329V13.3333C13.0003 13.7 12.7003 14 12.3337 14Z" fill="currentColor" style="fill:currentColor;fill:currentColor;fill-opacity:1;"/>
</g>
<defs>
<clipPath id="clip0_8263_6935">
<rect width="16" height="16" fill="white" style="fill:white;fill-opacity:1;" transform="translate(0.333984)"/>
</clipPath>
</defs>
</svg>
