<svg width="24" height="24" viewBox="0 0 24 24" fill="currentColor" xmlns="http://www.w3.org/2000/svg">
<path d="M12 1.5C7.7235 1.5 4.5 3.1125 4.5 5.25V18.75C4.5 20.8875 7.7235 22.5 12 22.5C16.2765 22.5 19.5 20.8875 19.5 18.75V5.25C19.5 3.1125 16.2765 1.5 12 1.5ZM12 3C15.6615 3 18 4.332 18 5.25C18 6.168 15.6615 7.5 12 7.5C8.3385 7.5 6 6.168 6 5.25C6 4.332 8.337 3 12 3ZM12 21C8.337 21 6 19.6665 6 18.75V14.3055C7.3455 15.195 9.492 15.75 12 15.75C14.508 15.75 16.6545 15.195 18 14.3055V18.75C18 19.6665 15.6615 21 12 21ZM12 14.25C8.337 14.25 6 12.918 6 12V7.5315C7.821 8.5785 9.9015 9.087 12 9C14.0985 9.087 16.179 8.5785 18 7.5315V12C18 12.918 15.663 14.25 12 14.25Z" fill="currentColor" style="fill:currentColor;fill:currentColor;fill-opacity:1;"/>
</svg>
