<svg width="24" height="24" viewBox="0 0 24 24" fill="currentColor" xmlns="http://www.w3.org/2000/svg">
<path d="M4.5 8.2305V12C4.5 14.0325 7.935 15.75 12 15.75C16.065 15.75 19.5 14.0325 19.5 12V8.2305C17.9145 9.6195 15.204 10.5 12 10.5C8.796 10.5 6.0855 9.6195 4.5 8.2305ZM12 9C16.1415 9 19.5 7.3215 19.5 5.25C19.5 3.1785 16.1415 1.5 12 1.5C7.8585 1.5 4.5 3.1785 4.5 5.25C4.5 7.3215 7.8585 9 12 9ZM4.5 14.9385V18.75C4.5 20.8875 7.7235 22.5 12 22.5C16.2765 22.5 19.5 20.8875 19.5 18.75V14.9385C17.901 16.3425 15.1665 17.25 12 17.25C8.8335 17.25 6.099 16.341 4.5 14.9385Z" fill="currentColor" style="fill:currentColor;fill-opacity:1;"/>
</svg>
