<svg width="11" height="14" viewBox="0 0 11 14" fill="currentColor" xmlns="http://www.w3.org/2000/svg">
<path d="M1.11096 5.18914L1.10999 5.19037L1.10825 5.19258L1.10329 5.19894L1.08771 5.21936C1.07491 5.23635 1.05739 5.26009 1.03599 5.29026C0.993205 5.35055 0.934718 5.43679 0.867188 5.54649C0.732399 5.76546 0.559984 6.08054 0.404682 6.47178C0.0947935 7.25245 -0.154773 8.35744 0.123522 9.60856C0.388136 10.7982 0.89831 11.9035 1.78235 12.7126C2.67455 13.5292 3.89967 14 5.50377 14C7.12146 14 8.38791 13.4571 9.24666 12.5266C10.0993 11.6027 10.5038 10.3471 10.5038 9C10.5038 8.14123 10.2183 7.31144 9.83453 6.53604C9.46923 5.7979 8.99516 5.07168 8.54963 4.38919C8.52783 4.35579 8.50609 4.32249 8.48444 4.2893C8.01149 3.56435 7.58091 2.89406 7.29493 2.25635C7.00909 1.61894 6.89723 1.07627 6.99287 0.598058C7.02225 0.45117 6.98422 0.29885 6.88925 0.183006C6.79428 0.0671615 6.65238 0 6.50258 0C6.08062 0 5.37739 0.148379 4.71037 0.493391C4.03729 0.841538 3.33351 1.42606 3.02824 2.34189C2.63813 3.51222 3.08723 4.83198 3.47144 5.66488C3.64247 6.03564 3.49397 6.44529 3.21016 6.5872C2.94287 6.72084 2.61785 6.6125 2.4842 6.34521L1.94979 5.27639C1.87342 5.12365 1.72437 5.02044 1.55452 5.0027C1.38466 4.98497 1.21724 5.05547 1.11096 5.18914Z" fill="currentColor" style="fill:currentColor;fill-opacity:1;"/>
</svg>
