<svg width="24" height="24" viewBox="0 0 24 24" fill="currentColor" xmlns="http://www.w3.org/2000/svg">
<path d="M12.0001 1.99902C17.5238 1.99902 22.0016 6.47687 22.0016 12.0006C22.0016 17.5243 17.5238 22.0021 12.0001 22.0021C6.47638 22.0021 1.99854 17.5243 1.99854 12.0006C1.99854 6.47687 6.47638 1.99902 12.0001 1.99902ZM14.939 16.5003H9.06118C9.71322 18.9144 10.8466 20.5021 12.0001 20.5021C13.1536 20.5021 14.287 18.9144 14.939 16.5003ZM7.5084 16.5009L4.78591 16.5007C5.74425 18.0338 7.1777 19.2394 8.88008 19.9114C8.3578 19.0915 7.92681 18.0653 7.60981 16.8959L7.5084 16.5009ZM19.2143 16.5007L16.4918 16.5009C16.168 17.8346 15.7004 19.0004 15.119 19.9114C16.716 19.2814 18.0757 18.1824 19.0291 16.7843L19.2143 16.5007ZM7.09351 9.99992H3.7359L3.73115 10.0171C3.57906 10.6535 3.49854 11.3176 3.49854 12.0006C3.49854 13.0567 3.69112 14.0679 4.0431 15.0009L7.21626 15.0005C7.07396 14.0514 6.99854 13.0432 6.99854 12.0006C6.99854 11.3166 7.031 10.6474 7.09351 9.99992ZM15.397 9.99999H8.60316C8.53514 10.6403 8.49853 11.31 8.49853 12.0006C8.49853 13.0601 8.58468 14.0704 8.73827 15.0007H15.2619C15.4155 14.0704 15.5016 13.0601 15.5016 12.0006C15.5016 11.31 15.465 10.6403 15.397 9.99999ZM20.2647 9.99909L16.9067 9.99994C16.9692 10.6474 17.0016 11.3166 17.0016 12.0006C17.0016 13.0432 16.9262 14.0514 16.7839 15.0005L19.9571 15.0009C20.309 14.0679 20.5016 13.0567 20.5016 12.0006C20.5016 11.3112 20.4196 10.6409 20.2647 9.99909ZM8.88114 4.08973L8.85823 4.09844C6.81092 4.91315 5.1549 6.50046 4.25023 8.50033L7.29835 8.50069C7.61171 6.7479 8.15855 5.22198 8.88114 4.08973ZM12.0001 3.49902L11.8844 3.50432C10.619 3.62008 9.39651 5.62205 8.8288 8.50027H15.1714C14.6052 5.63011 13.388 3.63131 12.1264 3.50534L12.0001 3.49902ZM15.1201 4.08979L15.2269 4.26388C15.8961 5.37635 16.4043 6.83623 16.7018 8.50069L19.7499 8.50033C18.8853 6.58892 17.3343 5.05439 15.4113 4.21106L15.1201 4.08979Z" fill="currentColor" style="fill:currentColor;fill:currentColor;fill-opacity:1;"/>
</svg>
