<svg width="17" height="17" viewBox="0 0 17 17" fill="currentColor" xmlns="http://www.w3.org/2000/svg">
    <path
        d="M8 16C8.08495 16 8.16959 15.9987 8.2539 15.996C7.98125 15.6653 7.7465 15.3021 7.55629 14.9132C7.02035 14.7057 6.4582 14.1204 5.97822 13.0919C5.76073 12.6258 5.57172 12.0902 5.41936 11.5H7.09069C7.15419 11.1543 7.25003 10.8199 7.37494 10.5H5.20617C5.07345 9.72528 5 8.88331 5 8C5 7.11669 5.07345 6.27472 5.20617 5.5H10.7938C10.8865 6.04103 10.9503 6.61484 10.9803 7.21264C11.2998 7.12099 11.6312 7.05751 11.9716 7.02506C11.9407 6.50004 11.8853 5.98985 11.8074 5.5H14.5404C14.7914 6.15622 14.9464 6.85987 14.9884 7.5938C15.349 7.77706 15.6867 7.99891 15.996 8.2539C15.9987 8.16959 16 8.08495 16 8C16 3.58172 12.4183 0 8 0C3.58172 0 0 3.58172 0 8C0 12.4183 3.58172 16 8 16ZM8 1C8.65685 1 9.40677 1.59025 10.0218 2.90814C10.2393 3.37419 10.4283 3.90978 10.5806 4.5H5.41936C5.57172 3.90978 5.76073 3.37419 5.97822 2.90814C6.59323 1.59025 7.34315 1 8 1ZM5.07203 2.48526C4.79564 3.07753 4.56498 3.75696 4.38931 4.5H1.93648C2.77295 3.05399 4.11182 1.93497 5.71442 1.38163C5.47297 1.71222 5.25828 2.08617 5.07203 2.48526ZM4.19265 5.5C4.06723 6.28832 4 7.12934 4 8C4 8.87066 4.06723 9.71168 4.19265 10.5H1.45963C1.16268 9.7236 1 8.8808 1 8C1 7.1192 1.16268 6.2764 1.45963 5.5H4.19265ZM4.38931 11.5C4.56498 12.243 4.79564 12.9225 5.07203 13.5147C5.25828 13.9138 5.47297 14.2878 5.71442 14.6184C4.11182 14.065 2.77295 12.946 1.93648 11.5H4.38931ZM10.2856 1.38163C11.8882 1.93497 13.2271 3.05399 14.0635 4.5H11.6107C11.435 3.75696 11.2044 3.07753 10.928 2.48526C10.7417 2.08617 10.527 1.71222 10.2856 1.38163ZM8 12.5C8 14.9853 10.0147 17 12.5 17C14.9853 17 17 14.9853 17 12.5C17 10.0147 14.9853 8 12.5 8C10.0147 8 8 10.0147 8 12.5ZM14.5 9.5C14.7761 9.5 15 9.72386 15 10V11.5C15 11.7761 14.7761 12 14.5 12H13C12.7239 12 12.5 11.7761 12.5 11.5C12.5 11.2239 12.7239 11 13 11H13.4682C13.4179 10.9722 13.3663 10.9464 13.3135 10.923C13.0682 10.8137 12.8034 10.755 12.535 10.7503C12.2665 10.7456 11.9998 10.795 11.7508 10.8956C11.5018 10.9962 11.2756 11.1459 11.0857 11.3358C10.8905 11.531 10.5739 11.531 10.3786 11.3358C10.1834 11.1405 10.1834 10.8239 10.3786 10.6287C10.6635 10.3439 11.0027 10.1193 11.3762 9.96842C11.7497 9.81754 12.1497 9.74341 12.5524 9.75046C12.9552 9.75751 13.3524 9.84558 13.7203 10.0094C13.8162 10.0521 13.9095 10.0997 14 10.1519V10C14 9.72386 14.2239 9.5 14.5 9.5ZM13.6238 15.0316C13.2503 15.1825 12.8503 15.2566 12.4476 15.2495C12.0448 15.2425 11.6476 15.1544 11.2797 14.9906C11.1838 14.9479 11.0905 14.9003 11 14.8481V15C11 15.2761 10.7761 15.5 10.5 15.5C10.2239 15.5 10 15.2761 10 15V13.5C10 13.2239 10.2239 13 10.5 13H12C12.2761 13 12.5 13.2239 12.5 13.5C12.5 13.7761 12.2761 14 12 14H11.5318C11.5821 14.0278 11.6337 14.0536 11.6865 14.077C11.9318 14.1863 12.1966 14.245 12.465 14.2497C12.7335 14.2544 13.0002 14.205 13.2492 14.1044C13.4982 14.0038 13.7244 13.8541 13.9143 13.6642C14.1095 13.469 14.4261 13.469 14.6214 13.6642C14.8166 13.8595 14.8166 14.1761 14.6214 14.3713C14.3365 14.6561 13.9973 14.8807 13.6238 15.0316Z"
        fill="currentColor" />
</svg>