<svg width="21" height="20" viewBox="0 0 21 20" fill="currentColor" xmlns="http://www.w3.org/2000/svg">
<path d="M15.667 6C15.667 6.55228 15.2193 7 14.667 7C14.1147 7 13.667 6.55228 13.667 6C13.667 5.44772 14.1147 5 14.667 5C15.2193 5 15.667 5.44772 15.667 6ZM13.167 2C10.0908 2 7.66699 4.42386 7.66699 7.5C7.66699 7.89668 7.707 8.29598 7.78853 8.67456C7.84667 8.94454 7.78077 9.17912 7.64718 9.31271L3.10633 13.8536C2.82503 14.1349 2.66699 14.5164 2.66699 14.9142V16.5C2.66699 17.3284 3.33857 18 4.16699 18H6.16699C6.99542 18 7.66699 17.3284 7.66699 16.5V16L8.66699 16C9.21928 16 9.66699 15.5523 9.66699 15V14H10.667C11.2193 14 11.667 13.5523 11.667 13V12.8199C12.1605 12.9536 12.6739 13 13.167 13C16.2431 13 18.667 10.5761 18.667 7.5C18.667 4.42386 16.2431 2 13.167 2ZM8.66699 7.5C8.66699 4.97614 10.6431 3 13.167 3C15.6908 3 17.667 4.97614 17.667 7.5C17.667 10.0239 15.6908 12 13.167 12C12.5078 12 11.8944 11.9047 11.3906 11.6528C11.2356 11.5753 11.0515 11.5836 10.9041 11.6747C10.7567 11.7658 10.667 11.9267 10.667 12.1V13H9.66699C9.11471 13 8.66699 13.4477 8.66699 14V15L7.66699 15C7.11471 15 6.66699 15.4477 6.66699 16V16.5C6.66699 16.7761 6.44313 17 6.16699 17H4.16699C3.89085 17 3.66699 16.7761 3.66699 16.5L3.66699 14.9142C3.66699 14.7816 3.71967 14.6544 3.81344 14.5607L8.35428 10.0198C8.78642 9.58768 8.87641 8.97619 8.76612 8.46404C8.70054 8.15949 8.66699 7.83105 8.66699 7.5Z" fill="currentColor" style="fill:currentColor;fill:currentColor;fill-opacity:1;"/>
</svg>
