<svg width="21" height="20" viewBox="0 0 21 20" fill="currentColor" xmlns="http://www.w3.org/2000/svg">
<path d="M13.333 9C13.333 10.6569 11.9899 12 10.333 12C8.67615 12 7.33301 10.6569 7.33301 9C7.33301 7.34315 8.67615 6 10.333 6C11.9899 6 13.333 7.34315 13.333 9ZM12.333 9C12.333 7.89543 11.4376 7 10.333 7C9.22844 7 8.33301 7.89543 8.33301 9C8.33301 10.1046 9.22844 11 10.333 11C11.4376 11 12.333 10.1046 12.333 9ZM15.2828 13.955C18.0164 11.2201 18.0164 6.78601 15.2828 4.05115C12.5491 1.31628 8.11693 1.31628 5.38326 4.05115C2.64959 6.78601 2.64959 11.2201 5.38326 13.955L6.90429 15.4538L8.94709 17.4389L9.07992 17.5567C9.85469 18.1847 10.9892 18.1455 11.7191 17.4391L14.1554 15.0691L15.2828 13.955ZM6.088 4.75619C8.43245 2.41072 12.2336 2.41072 14.578 4.75619C16.8624 7.04153 16.9209 10.7104 14.7537 13.0667L14.578 13.2499L13.2567 14.5539L11.0262 16.7225L10.9332 16.8021C10.5789 17.0699 10.0873 17.0698 9.73312 16.802L9.64014 16.7224L6.65931 13.817L6.088 13.2499L5.91228 13.0667C3.74509 10.7104 3.80366 7.04153 6.088 4.75619Z" fill="currentColor" style="fill:currentColor;fill:currentColor;fill-opacity:1;"/>
</svg>
