<svg width="12" height="15" viewBox="0 0 12 15" fill="currentColor" xmlns="http://www.w3.org/2000/svg">
    <path
        d="M5 1C6.10457 1 7 1.89543 7 3V4H3V3C3 1.89543 3.89543 1 5 1ZM2 3V4H1.5C0.671573 4 0 4.67157 0 5.5V11.5C0 12.3284 0.671573 13 1.5 13H8.5C9.32843 13 10 12.3284 10 11.5V5.5C10 4.67157 9.32843 4 8.5 4H8V3C8 1.34315 6.65685 0 5 0C3.34315 0 2 1.34315 2 3ZM1 5.5C1 5.22386 1.22386 5 1.5 5H8.5C8.77614 5 9 5.22386 9 5.5V11.5C9 11.7761 8.77614 12 8.5 12H1.5C1.22386 12 1 11.7761 1 11.5V5.5ZM3.50058 15C2.84748 15 2.29186 14.5826 2.08594 14H8.50058C9.8813 14 11.0006 12.8807 11.0006 11.5V6.08533C11.5832 6.29125 12.0006 6.84686 12.0006 7.49997V11.5C12.0006 13.433 10.4336 15 8.50058 15H3.50058ZM5 9.5C5.55228 9.5 6 9.05229 6 8.5C6 7.94772 5.55228 7.5 5 7.5C4.44772 7.5 4 7.94772 4 8.5C4 9.05229 4.44772 9.5 5 9.5Z"
        fill="currentColor" />
</svg>