<svg width="32" height="32" viewBox="0 0 32 32" fill="none" xmlns="http://www.w3.org/2000/svg">
<path d="M16 16C19.866 16 23 12.866 23 8.99998C23 5.134 19.866 2 16 2C12.134 2 9 5.134 9 8.99998C9 12.866 12.134 16 16 16ZM7.5 18C5.56696 18 3.99994 19.567 4 21.5001L4.00001 22C4.00003 24.3935 5.52264 26.4174 7.68492 27.7934C9.85906 29.177 12.8015 30 15.9999 30C19.1983 30 22.1408 29.177 24.315 27.7934C26.4773 26.4174 28 24.3935 28 22V21.5C28 19.567 26.433 18 24.5 18H7.5Z" fill="url(#paint0_linear_9708_1154)" style=""/>
<defs>
<linearGradient id="paint0_linear_9708_1154" x1="16" y1="2" x2="16" y2="30" gradientUnits="userSpaceOnUse">
<stop stop-color="#14AFFC" style="stop-color:#14AFFC;stop-color:color(display-p3 0.0784 0.6850 0.9882);stop-opacity:1;"/>
<stop offset="1" stop-color="#2280EC" style="stop-color:#2280EC;stop-color:color(display-p3 0.1333 0.5030 0.9255);stop-opacity:1;"/>
</linearGradient>
</defs>
</svg>
