<svg width="21" height="20" viewBox="0 0 21 20" fill="currentColor" xmlns="http://www.w3.org/2000/svg">
<g clip-path="url(#clip0_8263_6914)">
<path d="M10.3333 3.33329C11.9417 3.33329 14.5 4.49996 14.5 7.62496C14.5 9.42496 13.0667 11.5166 10.3333 13.725C7.6 11.5166 6.16667 9.41663 6.16667 7.62496C6.16667 4.49996 8.725 3.33329 10.3333 3.33329ZM10.3333 1.66663C7.60833 1.66663 4.5 3.71663 4.5 7.62496C4.5 10.225 6.44167 12.9666 10.3333 15.8333C14.225 12.9666 16.1667 10.225 16.1667 7.62496C16.1667 3.71663 13.0583 1.66663 10.3333 1.66663Z" fill="currentColor" style="fill:currentColor;fill:color(display-p3 0.6031 0.6417 0.6969);fill-opacity:1;"/>
<path d="M10.3333 5.83337C9.41667 5.83337 8.66667 6.58337 8.66667 7.50004C8.66667 8.41671 9.41667 9.16671 10.3333 9.16671C10.7754 9.16671 11.1993 8.99111 11.5118 8.67855C11.8244 8.36599 12 7.94207 12 7.50004C12 7.05801 11.8244 6.63409 11.5118 6.32153C11.1993 6.00897 10.7754 5.83337 10.3333 5.83337ZM4.5 16.6667H16.1667V18.3334H4.5V16.6667Z" fill="currentColor" style="fill:currentColor;fill:color(display-p3 0.6031 0.6417 0.6969);fill-opacity:1;"/>
</g>
<defs>
<clipPath id="clip0_8263_6914">
<rect width="20" height="20" fill="white" style="fill:white;fill-opacity:1;" transform="translate(0.333008)"/>
</clipPath>
</defs>
</svg>
