<svg width="12" height="12" viewBox="0 0 12 12" fill="currentColor" xmlns="http://www.w3.org/2000/svg">
<path d="M2.49999 1C1.67157 1 0.999995 1.67157 0.999995 2.5V9.5C0.999995 10.3284 1.67157 11 2.49999 11H9.49996C10.3284 11 10.9999 10.3284 10.9999 9.5V7.26923C10.9999 6.99309 11.2238 6.76923 11.4999 6.76923C11.7761 6.76923 11.9999 6.99309 11.9999 7.26923V9.5C11.9999 10.8807 10.8807 12 9.49996 12H2.49999C1.11928 12 0 10.8807 0 9.5V2.5C0 1.11929 1.11928 0 2.49999 0H4.73075C5.00689 0 5.23074 0.223858 5.23074 0.5C5.23074 0.776142 5.00689 1 4.73075 1H2.49999ZM6.76926 0.5C6.76926 0.223858 6.99311 0 7.26925 0H11.5C11.7761 0 12 0.223858 12 0.5V4.73077C12 5.00691 11.7761 5.23077 11.5 5.23077C11.2239 5.23077 11 5.00691 11 4.73077V1.70711L7.6228 5.08433C7.42754 5.27959 7.11096 5.27959 6.9157 5.08433C6.72044 4.88906 6.72044 4.57248 6.9157 4.37722L10.2929 1H7.26925C6.99311 1 6.76926 0.776142 6.76926 0.5Z" fill="currentColor" style="fill:currentColor;fill:currentColor;fill-opacity:1;"/>
</svg>
