<svg width="24" height="24" viewBox="0 0 24 24" fill="currentColor" xmlns="http://www.w3.org/2000/svg">
<path d="M3.38512 5.99635C3.95773 5.68038 5.72117 4.87763 7.96084 5.52924L7.96246 5.52971C9.19434 5.89112 9.86774 6.64028 10.1986 7.46943C10.4993 8.22308 10.4988 9.00558 10.4985 9.4597L10.4985 15.2494C10.4985 15.6636 10.1627 15.9994 9.7485 15.9994C9.33429 15.9994 8.9985 15.6636 8.9985 15.2494V14.9488C8.87408 15.0228 8.74209 15.0975 8.60343 15.1711C7.65146 15.6766 6.2756 16.1898 4.84609 15.9325C3.26232 15.6475 2.27037 14.3376 2.04591 12.9809C1.81748 11.6002 2.36169 10.0437 3.94794 9.28391C5.38792 8.59416 6.93793 8.65551 8.07049 8.8568C8.41199 8.91749 8.72336 8.99228 8.99259 9.06749C8.97952 8.71622 8.93783 8.35728 8.80538 8.02532C8.63905 7.60846 8.31403 7.19629 7.54098 6.96928C5.84606 6.47649 4.51469 7.08626 4.10982 7.30967C3.74715 7.50979 3.29093 7.37803 3.09081 7.01536C2.89069 6.6527 3.02245 6.19647 3.38512 5.99635ZM7.80802 10.3337C6.82165 10.1584 5.63338 10.1398 4.59594 10.6367C3.70477 11.0636 3.3884 11.9056 3.52579 12.7361C3.66714 13.5904 4.26739 14.3043 5.11177 14.4562C6.0502 14.6251 7.05912 14.2928 7.89995 13.8463C8.3091 13.629 8.6526 13.3985 8.89337 13.2223C8.93112 13.1947 8.96621 13.1685 8.9985 13.144V10.638C8.70564 10.5395 8.29139 10.4196 7.80802 10.3337ZM16.4851 7.03767C16.8782 7.16818 17.0911 7.59267 16.9606 7.98578C16.8712 8.25499 16.7758 8.59566 16.6897 8.92547C17.638 8.83719 18.5598 8.69974 19.3278 8.51931C19.731 8.42458 20.1347 8.67468 20.2294 9.07792C20.3242 9.48115 20.0741 9.88483 19.6708 9.97956C18.6981 10.2081 17.519 10.3712 16.3347 10.4606C16.2253 11.0069 16.1409 11.5051 16.0776 11.9607C16.6648 11.7936 17.2249 11.7187 17.7498 11.7229C17.7638 11.321 18.0941 10.9995 18.4994 10.9995C18.9136 10.9995 19.2494 11.3352 19.2494 11.7495C19.2494 11.8239 19.2485 11.8978 19.2466 11.9713C20.4505 12.3846 21.3377 13.279 21.7509 14.395C22.1153 15.3788 22.091 16.5023 21.5972 17.5223C21.101 18.5472 20.1568 19.4163 18.7703 19.9495C18.3837 20.0981 17.9497 19.9052 17.8011 19.5186C17.6524 19.132 17.8453 18.6981 18.2319 18.5494C19.3147 18.1331 19.9396 17.5039 20.2472 16.8686C20.5572 16.2282 20.5716 15.5295 20.3443 14.9159C20.1355 14.3521 19.704 13.8287 19.0663 13.5166C18.6958 15.255 17.8044 16.6276 16.7811 17.5633C16.8378 17.6959 16.8948 17.8356 16.9514 17.9872C17.0963 18.3753 16.8991 18.8073 16.511 18.9521C16.123 19.097 15.691 18.8998 15.5461 18.5117C15.5404 18.4964 15.5345 18.481 15.5284 18.4653C15.1137 18.6912 14.6937 18.8525 14.2882 18.9395C13.5672 19.0943 12.7306 19.0384 12.1588 18.454C11.293 17.5676 11.3404 16.1768 11.9536 15.0111C12.431 14.1034 13.2772 13.2412 14.4921 12.5988C14.5511 11.9841 14.6486 11.3006 14.7923 10.5349C14.1383 10.5481 13.5112 10.5362 12.9481 10.4977C12.5349 10.4694 12.2228 10.1115 12.251 9.69826C12.2793 9.28502 12.6372 8.97292 13.0505 9.00118C13.6717 9.04367 14.3812 9.05082 15.1174 9.02563C15.233 8.55312 15.3891 7.95865 15.537 7.51316C15.6675 7.12004 16.092 6.90716 16.4851 7.03767ZM14.427 14.4097C13.881 14.823 13.5074 15.2792 13.2811 15.7094C12.8375 16.5528 12.9922 17.1604 13.231 17.4049C13.2861 17.4612 13.4885 17.577 13.9734 17.4729C14.3185 17.3988 14.6448 17.2703 14.95 17.0991C14.7998 16.7006 14.6582 16.2454 14.5639 15.7268C14.4926 15.3349 14.4442 14.9007 14.427 14.4097ZM16.1816 16.07C16.8948 15.244 17.3862 14.1886 17.5952 13.2219C17.1917 13.2346 16.7484 13.3125 16.2668 13.4714C16.1504 13.5099 16.0374 13.5503 15.9279 13.5923C15.8999 14.3665 15.9506 14.9688 16.0397 15.4584C16.081 15.6855 16.1288 15.8864 16.1816 16.07Z" fill="currentColor" style="fill:currentColor;fill:currentColor;fill-opacity:1;"/>
</svg>
