<svg width="21" height="20" viewBox="0 0 21 20" fill="currentColor" xmlns="http://www.w3.org/2000/svg">
<g clip-path="url(#clip0_8263_6908)">
<path d="M19.0003 15.8333L14.0003 15.8333V12.5H11.767C10.817 14.5166 8.76699 15.8333 6.50033 15.8333C3.28366 15.8333 0.666992 13.2166 0.666992 9.99996C0.666992 6.78329 3.28366 4.16663 6.50033 4.16663C8.76699 4.16663 10.8087 5.48329 11.767 7.49996L20.667 7.49996V12.5H19.0003L19.0003 15.8333ZM15.667 14.1666L17.3337 14.1666V10.8333H19.0003V9.16663L10.617 9.16663L10.4253 8.60829C9.84199 6.94996 8.25866 5.83329 6.50033 5.83329C4.20033 5.83329 2.33366 7.69996 2.33366 9.99996C2.33366 12.3 4.20033 14.1666 6.50033 14.1666C8.25866 14.1666 9.84199 13.05 10.4253 11.3916L10.617 10.8333L15.667 10.8333V14.1666ZM6.50033 12.5C5.12533 12.5 4.00033 11.375 4.00033 9.99996C4.00033 8.62496 5.12533 7.49996 6.50033 7.49996C7.87533 7.49996 9.00033 8.62496 9.00033 9.99996C9.00033 11.375 7.87533 12.5 6.50033 12.5ZM6.50033 9.16663C6.04199 9.16663 5.66699 9.54163 5.66699 9.99996C5.66699 10.4583 6.04199 10.8333 6.50033 10.8333C6.95866 10.8333 7.33366 10.4583 7.33366 9.99996C7.33366 9.54163 6.95866 9.16663 6.50033 9.16663Z" fill="currentColor" style="fill:currentColor;fill:color(display-p3 0.6031 0.6417 0.6969);fill-opacity:1;"/>
</g>
<defs>
<clipPath id="clip0_8263_6908">
<rect width="20" height="20" fill="currentColor" style="fill:currentColor;fill-opacity:1;" transform="translate(0.666992)"/>
</clipPath>
</defs>
</svg>
