<svg width="24" height="24" viewBox="0 0 24 24" fill="currentColor" xmlns="http://www.w3.org/2000/svg">
<path d="M20.0258 17.0013C17.2639 21.7849 11.1471 23.424 6.3634 20.6621C5.06068 19.91 3.964 18.8925 3.12872 17.6796C2.84945 17.274 3.0301 16.714 3.49369 16.548C7.26112 15.1996 9.27892 13.637 10.4498 11.4019C11.6825 9.04896 12.001 6.4715 11.1387 2.93849C11.0195 2.44996 11.4053 1.98479 11.9075 2.01174C13.4645 2.09527 14.9856 2.54251 16.3649 3.33891C21.1486 6.10076 22.7876 12.2176 20.0258 17.0013ZM11.7785 12.098C10.5272 14.4866 8.46706 16.1971 4.96104 17.5969C5.56929 18.2927 6.29275 18.8893 7.1134 19.3631C11.1796 21.7107 16.3791 20.3175 18.7267 16.2513C21.0744 12.185 19.6812 6.98558 15.6149 4.63794C14.7379 4.13158 13.7951 3.79156 12.8228 3.62241C13.4699 7.0064 13.0525 9.6661 11.7785 12.098Z" fill="currentColor" style="fill:currentColor;fill:currentColor;fill-opacity:1;"/>
</svg>
